<svg xmlns="http://www.w3.org/2000/svg" width="64" height="64" viewBox="0 0 64 64" fill="none">
  <title>Mindset Transformation</title>
  <g stroke="#FFFFFF" stroke-width="2.8" stroke-linecap="round" stroke-linejoin="round">
    <path d="M25 50c-5.5 0-10-4.5-10-10V28c0-9.4 7.6-17 17-17s17 7.6 17 17v2"/>
    <path d="M24 49h14"/>
    <path d="M28 55h6"/>
    <path d="M31 21c4 0 7 3 7 7 0 2.6-1.5 4.5-3.2 6-1.4 1.2-2.3 2.5-2.8 4"/>
    <path d="M45 18v10"/>
    <path d="M40 23h10"/>
    <path d="M23 18l3 3"/>
    <path d="M20 24l4-1"/>
  </g>
  <circle cx="45" cy="23" r="2.5" fill="#FFFFFF"/>
</svg>
